<?xml version="1.0" encoding="UTF-8"?><svg id="Layer_1" xmlns="http://www.w3.org/2000/svg" width="155.18" height="24" xmlns:xlink="http://www.w3.org/1999/xlink" viewBox="0 0 155.18 24"><defs><style>.cls-1{clip-path:url(#clippath);}.cls-2{fill:none;}.cls-2,.cls-3,.cls-4,.cls-5{stroke-width:0px;}.cls-3{fill:url(#linear-gradient);}.cls-4{fill:url(#radial-gradient);}.cls-5{fill:#111;}</style><clipPath id="clippath"><rect class="cls-2" width="155.18" height="24"/></clipPath><radialGradient id="radial-gradient" cx="12.52" cy="10.54" fx="12.52" fy="10.54" r="1" gradientTransform="translate(-184.84 -263.9) scale(25.62)" gradientUnits="userSpaceOnUse"><stop offset="0" stop-color="#c184ff"/><stop offset=".36" stop-color="#9f66f7"/><stop offset="1" stop-color="#5827e6"/></radialGradient><linearGradient id="linear-gradient" x1="444.19" y1="276.74" x2="447.11" y2="284.36" gradientTransform="translate(-318.5 -270)" gradientUnits="userSpaceOnUse"><stop offset=".12" stop-color="#c184ff" stop-opacity="0"/><stop offset=".27" stop-color="#b176fb" stop-opacity=".15"/><stop offset=".6" stop-color="#8a54f2" stop-opacity=".52"/><stop offset="1" stop-color="#5827e6"/></linearGradient></defs><g class="cls-1"><path class="cls-5" d="M23.25,1.1c-2.8-1.75-6.49-1.33-9.77.73C10.19-.24,6.51-.65,3.71,1.1-.72,3.86-1.26,10.99,2.5,17.01c2.77,4.44,7.11,7.04,10.97,6.99,3.86.05,8.2-2.55,10.97-6.99,3.76-6.02,3.23-13.14-1.2-15.91h.01ZM4.54,15.74c-.79-1.27-1.38-2.6-1.74-3.98-.34-1.29-.47-2.55-.38-3.75.17-2.22,1.07-3.96,2.55-4.88s3.43-.98,5.5-.15c.31.12.62.27.93.43-1.1,1-2.12,2.2-2.98,3.59-2.29,3.66-2.98,7.72-2.18,10.97-.62-.67-1.19-1.42-1.7-2.23ZM24.15,11.76c-.36,1.37-.94,2.71-1.74,3.98-.51.81-1.07,1.55-1.7,2.23.71-2.91.23-6.47-1.52-9.81-.12-.23-.41-.31-.63-.17l-5.45,3.4c-.21.13-.27.41-.14.61l.8,1.28c.13.21.41.27.61.14l3.53-2.21c.12.34.22.68.31,1.02.34,1.29.47,2.55.38,3.75-.17,2.22-1.07,3.96-2.55,4.88-.74.46-1.59.7-2.53.73h-.11c-.93-.03-1.79-.27-2.53-.73-1.48-.92-2.38-2.66-2.55-4.88-.09-1.19.04-2.46.38-3.75.36-1.37.94-2.71,1.74-3.98.79-1.27,1.74-2.38,2.81-3.3,1.01-.87,2.09-1.54,3.2-1.98,2.07-.82,4.03-.77,5.5.15,1.48.92,2.38,2.66,2.55,4.88.09,1.19-.04,2.46-.38,3.75h.02Z"/><path class="cls-5" d="M52.27,9.09c2.88,0,5.2,2.24,5.2,5.08s-2.32,5.02-5.2,5.02-5.18-2.2-5.18-5.02,2.32-5.08,5.18-5.08ZM52.27,16.54c1.34,0,2.35-1.07,2.35-2.39s-1.01-2.41-2.35-2.41-2.33,1.09-2.33,2.41,1.01,2.39,2.33,2.39ZM71.08,12.03c0,4.08-2.93,6.89-7.15,6.89h-5.27c-.26,0-.43-.2-.43-.45V5.62c0-.24.18-.43.43-.43h5.27c4.22,0,7.15,2.75,7.15,6.85h0ZM68,12.03c0-2.39-1.61-4.14-3.94-4.14h-2.88v8.32h2.88c2.34,0,3.94-1.82,3.94-4.18ZM76.44,9.09c1.28,0,2.3.55,2.75,1.3v-.59c0-.24.22-.43.41-.43h1.98c.24,0,.41.2.41.43v8.71c0,.24-.18.41-.41.41h-1.98c-.22,0-.41-.18-.41-.41v-.61c-.45.75-1.49,1.3-2.77,1.3-2.47,0-4.77-1.98-4.77-5.06s2.32-5.04,4.79-5.04h0ZM76.97,16.56c1.31,0,2.3-1.01,2.3-2.41s-.99-2.41-2.3-2.41-2.3,1.01-2.3,2.41.99,2.41,2.3,2.41ZM87.5,9.09c1.29,0,2.33.55,2.79,1.26v-4.75c0-.24.2-.41.43-.41h1.98c.24,0,.41.18.41.41v12.91c0,.24-.18.41-.41.41h-1.98c-.22,0-.41-.18-.41-.41v-.61c-.53.75-1.49,1.3-2.77,1.3-2.47,0-4.77-1.98-4.77-5.06s2.28-5.04,4.73-5.04h0ZM88.09,16.59c1.31,0,2.29-1.02,2.29-2.43s-.98-2.43-2.29-2.43-2.29,1.02-2.29,2.43.98,2.43,2.29,2.43ZM98.63,9.09c1.29,0,2.34.55,2.79,1.26v-4.75c0-.24.2-.41.43-.41h1.98c.24,0,.41.18.41.41v12.91c0,.24-.18.41-.41.41h-1.98c-.22,0-.41-.18-.41-.41v-.61c-.53.75-1.49,1.3-2.77,1.3-2.47,0-4.77-1.98-4.77-5.06s2.28-5.04,4.73-5.04h0ZM99.22,16.59c1.31,0,2.29-1.02,2.29-2.43s-.98-2.43-2.29-2.43-2.29,1.02-2.29,2.43.98,2.43,2.29,2.43ZM114.3,9.36h-1.98c-.31,0-.47.22-.53.45l-1.82,6.83-1.96-6.83c-.11-.36-.29-.45-.54-.45h-2.08c-.49,0-.58.33-.48.67l2.65,8.48c.08.24.23.41.53.41h1.2l-.25.84c-.25.73-.72.92-1.33.92-.52,0-.86-.21-1.23-.45-.14-.09-.25-.14-.39-.14-.18,0-.3.08-.47.32l-.59.88c-.11.18-.18.28-.18.48,0,.31.31.51.69.72.64.37,1.46.55,2.36.55,1.98,0,3.26-1.08,3.83-2.88l2.96-10.14c.14-.39.02-.67-.37-.67h-.02ZM43.81,17.05c-1.04,1.31-2.84,2.14-4.89,2.14-3.84,0-6.83-2.89-6.83-6.99s3.24-7.21,7.33-7.21c3.02,0,5.43,1.3,6.5,3.91.03.09.05.15.05.22,0,.12-.08.22-.34.31l-1.91.74c-.15.05-.27.05-.36,0-.1-.05-.16-.14-.23-.26-.68-1.3-1.9-2.19-3.78-2.19-2.44,0-4.18,1.9-4.18,4.37s1.49,4.36,4.25,4.36c1.45,0,2.61-.69,3.15-1.44h-1.73c-.25,0-.45-.19-.45-.45v-1.47c0-.25.19-.45.45-.45h5.05c.25,0,.45.18.45.43v5.42c0,.25-.19.45-.45.45h-1.64c-.25,0-.45-.19-.45-.45v-1.44Z"/><path class="cls-4" d="M155.17,9.37h-.29s0,.01-.02.02l-.23.51-.22-.51s0-.02-.02-.02h-.3v1h.19v-.74l.24.52s0,.02.02.02h.18s0-.01.02-.02l.24-.52v.74h.18v-1h0ZM153.86,9.37h-.84v.17h.31v.81h.19s0-.01,0-.02v-.79h.31v-.17h.02ZM136.16,5.78c-.56-.29-1.01-.75-1.31-1.31-.03-.06-.08-.11-.14-.15s-.12-.06-.2-.06c-.14,0-.27.08-.34.2-.29.56-.75,1.01-1.31,1.31-.12.07-.2.19-.2.34h0c0,.14.08.27.2.34.56.29,1.01.75,1.31,1.31.03.06.08.11.14.15s.12.06.2.06c.14,0,.27-.08.34-.2.29-.56.75-1.01,1.31-1.31.12-.07.2-.19.2-.34h0c0-.14-.08-.27-.2-.34ZM152.53,11.64c-.4-.75-.97-1.35-1.71-1.8s-1.6-.67-2.58-.67-1.84.22-2.58.67-1.31,1.05-1.71,1.8c-.4.75-.61,1.59-.61,2.51s.2,1.75.61,2.51c.4.75.98,1.35,1.71,1.8.74.45,1.6.67,2.58.67s1.84-.22,2.58-.67,1.31-1.05,1.71-1.8c.4-.75.61-1.59.61-2.51s-.2-1.75-.61-2.51ZM150.41,15.59c-.16.44-.42.8-.77,1.07s-.82.4-1.39.4-1.04-.13-1.39-.4-.61-.62-.77-1.07c-.16-.44-.24-.93-.24-1.45s.08-1,.24-1.45c.16-.44.42-.8.77-1.06.35-.27.82-.4,1.39-.4s1.04.13,1.39.4c.35.27.61.62.77,1.06s.24.93.24,1.45-.08,1-.24,1.45ZM142.85,9.21c-.18-.03-.39-.04-.65-.04-.6,0-1.14.19-1.62.58-.41.33-.74.78-.98,1.36v-1.74h-2.31v9.56h2.29v-3.94c0-.67.11-1.27.33-1.8.22-.52.53-.94.93-1.24s.87-.46,1.42-.46c.25,0,.46.02.62.05.16.03.29.08.4.12v-2.35c-.11-.03-.25-.06-.43-.1ZM133.3,9.36l-4.26,2.85-2.93-7.37h-1.82l-5.39,13.55c-.4,1,.34,2.08,1.41,2.08.15,0,.3-.02.44-.07.14-.04.28-.11.4-.19l6.68-4.48,1.15,3.18h2.72l-1.82-4.56,3.4-2.28v6.84h2.37v-9.56h-2.37.02ZM122.09,16.88l3.09-8.48,1.87,5.16-4.96,3.32Z"/><path class="cls-3" d="M127.05,13.55l-1.87-5.16.93-3.55,2.93,7.37-2,1.34h.01Z"/></g></svg>